<?xml version="1.0" standalone="no"?>
<!DOCTYPE svg PUBLIC "-//W3C//DTD SVG 1.1//EN" "http://www.w3.org/Graphics/SVG/1.1/DTD/svg11.dtd" >
<svg xmlns="http://www.w3.org/2000/svg">
<metadata>
This is a custom SVG webfont generated by Font Squirrel.
</metadata>
<defs>
<font id="webfontbASNsYCf" horiz-adv-x="500" >
<font-face units-per-em="1000" ascent="800" descent="-200" />
<missing-glyph horiz-adv-x="250" />
<glyph unicode=" "  horiz-adv-x="250" />
<glyph unicode="&#x09;" horiz-adv-x="250" />
<glyph unicode="&#xa0;" horiz-adv-x="250" />
<glyph unicode="!" horiz-adv-x="295" d="M225 220h-155v447h155v-447zM225 0h-155v153h155v-153z" />
<glyph unicode="&#x22;" horiz-adv-x="408" d="M182 667l-24 -268h-93l-24 268h141zM367 667l-24 -268h-93l-24 268h141z" />
<glyph unicode="#" horiz-adv-x="600" d="M604 497l-17 -114h-101l-13 -86h102l-18 -114h-102l-29 -183h-130l29 183h-87l-29 -183h-129l30 183h-102l17 114h102l14 86h-101l17 114h101l28 170h128l-27 -170h87l27 170h130l-27 -170h100zM356 383h-87l-13 -86h87z" />
<glyph unicode="$" horiz-adv-x="550" d="M479 209q0 -65 -39 -113.5t-103 -68.5v-95h-122v91q-73 15 -109 61q-40 50 -40 118h154q6 -64 53 -64q22 0 37 16t15 38q0 13 -6.5 25t-13 19.5t-22.5 16t-22.5 11.5t-26.5 10t-22 8q-141 53 -141 176q0 69 38.5 116.5t105.5 65.5v91h122v-91q57 -14 89 -56 q37 -48 37 -106v-9h-140q-4 57 -49 57q-22 0 -35.5 -14.5t-13.5 -36.5q0 -12 4 -22.5t13 -19t16.5 -14.5t22.5 -12t21.5 -9t23.5 -8l20 -7q60 -22 96.5 -67.5t36.5 -106.5z" />
<glyph unicode="%" horiz-adv-x="800" d="M770 148q0 -69 -47 -115t-116 -46q-70 0 -117 44.5t-47 114.5q0 71 46.5 117.5t117.5 46.5q70 0 116.5 -46t46.5 -116zM593 667l-280 -667h-106l280 667h106zM357 519q0 -70 -46.5 -116t-116.5 -46t-117 45t-47 115q0 71 46 117t117 46q69 0 116.5 -46t47.5 -115z M666 148q0 25 -17 43.5t-42 18.5t-42.5 -18t-17.5 -43q0 -26 17 -44.5t43 -18.5t42.5 18t16.5 44zM253 519q0 25 -17 43t-42 18t-42.5 -17.5t-17.5 -43.5t17 -44t43 -18q25 0 42 18.5t17 43.5z" />
<glyph unicode="&#x26;" horiz-adv-x="660" d="M643 393l-51 -124q-21 -52 -50 -89l91 -93l-102 -100l-79 81q-92 -81 -199 -81q-88 0 -155.5 53.5t-67.5 139.5q0 58 32.5 101t90.5 83q-63 63 -63 144q0 75 54.5 123.5t130.5 48.5q72 0 124 -46t52 -118q0 -87 -93 -153l79 -79l49 109h157zM315 517q0 19 -10.5 31 t-28.5 12t-29.5 -13t-11.5 -32q0 -30 38 -72q42 40 42 74zM352 166l-107 108q-51 -41 -51 -78q0 -31 22.5 -48.5t54.5 -17.5q48 0 81 36z" />
<glyph unicode="'" horiz-adv-x="223" d="M182 667l-24 -268h-93l-24 268h141z" />
<glyph unicode="(" horiz-adv-x="372" d="M345 -187q-72 27 -129 68q-88 65 -137 162.5t-49 206.5t49 206.5t137 162.5q57 41 129 68v-149q-73 -39 -115.5 -120.5t-42.5 -168.5q0 -86 42.5 -167.5t115.5 -119.5v-149z" />
<glyph unicode=")" horiz-adv-x="372" d="M342 250q0 -109 -49 -206.5t-137 -162.5q-57 -41 -129 -68v149q73 38 115.5 120t42.5 169q0 86 -42.5 167.5t-115.5 119.5v149q72 -27 129 -68q88 -65 137 -162.5t49 -206.5z" />
<glyph unicode="*" horiz-adv-x="550" d="M474 485l-119 -36l75 -99l-84 -64l-73 104l-72 -104l-84 64l78 99l-119 36l33 99l115 -43l-3 126h108l-6 -126l116 43z" />
<glyph unicode="+" d="M467 281h-154v-154h-126v154h-154v117h154v154h126v-154h154v-117z" />
<glyph unicode="," horiz-adv-x="262" d="M209 -36q0 -45 -24 -77t-68 -32h-64v80h11h12q3 0 10.5 0.5t11.5 2t9.5 4t8.5 6t5 9t2 12.5v31h-70v153h156v-189z" />
<glyph unicode="-" horiz-adv-x="253" d="M253 193h-253v127h253v-127z" />
<glyph unicode="." horiz-adv-x="262" d="M209 0h-156v153h156v-153z" />
<glyph unicode="/" horiz-adv-x="422" d="M389 667l-261 -834h-147l261 834h147z" />
<glyph unicode="0" horiz-adv-x="550" d="M524 236q0 -105 -70.5 -177t-175.5 -72q-69 0 -134 39t-94 100q-24 50 -24 110v194q0 123 91 193q75 57 160 57q69 0 134 -40.5t92 -102.5q21 -52 21 -107v-194zM354 236v195q0 99 -79 99q-41 0 -60 -28t-19 -71v-195q0 -43 19 -71t60 -28q79 0 79 99z" />
<glyph unicode="1" horiz-adv-x="550" d="M383 0h-170v523h-109v144h279v-667z" />
<glyph unicode="2" horiz-adv-x="550" d="M511 0h-470v133l26 16q84 51 146 112q47 46 85.5 102t38.5 102q0 29 -17 47t-46 18q-71 0 -77 -106h-162q2 52 9 85t30 68q33 51 88 77t119 26q91 0 158.5 -53t67.5 -142q0 -51 -18.5 -99.5t-57 -95t-67.5 -75t-79 -72.5h226v-143z" />
<glyph unicode="3" horiz-adv-x="547" d="M515 196q0 -92 -76 -150.5t-171 -58.5q-73 0 -137 31.5t-89 93.5q-14 36 -19 86h172q15 -61 76 -61q32 0 53 17.5t21 48.5q0 17 -5 29t-16 19t-20.5 11.5t-27 6t-27.5 2t-29.5 0t-24.5 -0.5v125q21 0 34 1t29.5 5t26 12t16 23t6.5 36q0 24 -12 41t-35 17q-50 0 -52 -57 h-168q1 96 65.5 151.5t162.5 55.5q84 0 146.5 -50t62.5 -132q0 -94 -88 -141q126 -41 126 -161z" />
<glyph unicode="4" horiz-adv-x="550" d="M540 117h-73v-117h-164v117h-293v125l298 425h159v-416h73v-134zM314 251v209l-134 -209h134z" />
<glyph unicode="5" horiz-adv-x="550" d="M527 229q0 -106 -75 -174t-182 -68q-95 0 -165.5 50.5t-87.5 141.5h171q32 -42 79 -42q36 0 63 26t27 62q0 38 -26.5 63t-65.5 25q-62 0 -87 -58l-137 34l57 378h369v-144h-238l-15 -91q39 21 90 21q95 0 159 -64.5t64 -159.5z" />
<glyph unicode="6" horiz-adv-x="550" d="M536 242q0 -111 -74.5 -183t-185.5 -72q-110 0 -186.5 74t-76.5 183q0 88 62 179l166 244h197l-147 -203q28 4 42 4q90 0 146.5 -67t56.5 -159zM365 227q0 39 -27 65t-66 26t-65 -25t-26 -64t27 -65.5t66 -26.5q38 0 64.5 26t26.5 64z" />
<glyph unicode="7" horiz-adv-x="550" d="M496 536l-235 -536h-187l246 523h-259v144h435v-131z" />
<glyph unicode="8" horiz-adv-x="550" d="M518 201q0 -94 -73.5 -154t-168.5 -60t-169.5 60.5t-74.5 153.5q0 55 27 100t77 66q-65 53 -65 125q0 84 59.5 136t144.5 52q84 0 143.5 -52t59.5 -134q0 -76 -65 -127q50 -21 77.5 -65.5t27.5 -100.5zM336 482q0 25 -17.5 42.5t-42.5 17.5q-28 0 -45.5 -18t-17.5 -46 q0 -25 18 -42t43 -17q26 0 44 18.5t18 44.5zM348 213q0 31 -21 53.5t-52 22.5q-32 0 -52.5 -21.5t-20.5 -53.5q0 -33 21 -55t54 -22q30 0 50.5 22.5t20.5 53.5z" />
<glyph unicode="9" horiz-adv-x="550" d="M537 419q0 -82 -47 -155l-170 -264h-194l150 207q-22 -7 -45 -7q-96 0 -156.5 67.5t-60.5 164.5q0 109 75 178.5t184 69.5q114 0 189 -73.5t75 -187.5zM366 441q0 37 -27.5 63t-64.5 26q-36 0 -63.5 -26t-27.5 -62q0 -37 27 -64t65 -27t64.5 26t26.5 64z" />
<glyph unicode=":" horiz-adv-x="262" d="M209 0h-156v153h156v-153zM209 347h-156v153h156v-153z" />
<glyph unicode=";" horiz-adv-x="262" d="M209 347h-156v153h156v-153zM209 -36q0 -45 -24 -77t-68 -32h-64v80h11h12q3 0 10.5 0.5t11.5 2t9.5 4t8.5 6t5 9t2 12.5v31h-70v153h156v-189z" />
<glyph unicode="&#x3c;" d="M467 61l-434 220v106l434 220v-126l-300 -148l299 -148z" />
<glyph unicode="=" d="M467 371h-434v110h434v-110zM467 199h-434v110h434v-110z" />
<glyph unicode="&#x3e;" d="M467 280l-434 -219v125l300 148l-299 148l-1 125l434 -220v-107z" />
<glyph unicode="?" horiz-adv-x="496" d="M295 0h-156v153h156v-153zM466 489q0 -41 -17 -76t-41 -59t-49 -45.5t-43.5 -46.5t-20.5 -50h-156q1 43 25 81.5t52.5 62.5t52.5 54.5t24 59.5q0 56 -52 56q-37 0 -49 -22.5t-13 -64.5h-165q-1 6 -1 17q0 100 68 162t169 62q86 0 151 -53.5t65 -137.5z" />
<glyph unicode="@" horiz-adv-x="733" d="M700 384q0 -50 -17 -99q-20 -53 -58.5 -92.5t-88.5 -39.5q-27 0 -49 14.5t-29 40.5q-21 -30 -54.5 -46.5t-69.5 -16.5q-62 0 -101.5 46.5t-39.5 110.5q0 76 50.5 138t124.5 62q67 0 98 -49l7 39l87 -1l-37 -190q-6 -28 -6 -44q0 -32 23 -32t46 32q37 52 37 127 q0 99 -67 157.5t-167 58.5q-115 0 -193 -79.5t-78 -194.5q0 -81 43 -150t116 -94q48 -16 112 -16q96 0 182 31l20 -78q-90 -31 -204 -31q-154 0 -249 90q-50 47 -77.5 113t-27.5 137q0 147 102 248.5t249 101.5q132 0 224 -82t92 -212zM444 345q0 28 -18 47t-46 19 q-38 0 -63 -32.5t-25 -72.5q0 -31 17.5 -51.5t48.5 -20.5q40 0 63 35t23 76z" />
<glyph unicode="A" horiz-adv-x="660" d="M664 0h-185l-32 97h-232l-35 -97h-183l267 667h135zM401 232l-69 228l-70 -228h139z" />
<glyph unicode="B" horiz-adv-x="577" d="M548 202q0 -86 -61 -144q-29 -28 -69.5 -41.5t-67.5 -15t-82 -1.5h-211v667h205q46 0 68 -0.5t61 -9.5t61 -27q63 -51 63 -138q0 -90 -77 -135q110 -36 110 -155zM352 466q0 31 -19 41t-53 10h-60v-104h60q72 0 72 53zM385 213q0 35 -23 46.5t-62 11.5h-80v-121h80 q85 0 85 63z" />
<glyph unicode="C" horiz-adv-x="736" d="M717 249q-28 -118 -121.5 -190t-215.5 -72q-147 0 -249 100.5t-102 247.5q0 146 101.5 245.5t247.5 99.5q93 0 170 -41.5t126 -119.5q20 -32 29 -52.5t14 -53.5h-178q-20 53 -63.5 85t-98.5 32q-79 0 -128.5 -57.5t-49.5 -137.5t50 -139t129 -59q107 0 161 112h178z" />
<glyph unicode="D" horiz-adv-x="662" d="M633 336q0 -147 -84 -241.5t-230 -94.5h-262v667h224q68 0 116 -9t94 -39q72 -46 107 -120t35 -163zM463 331q0 85 -40 135.5t-122 50.5h-74v-367h73q83 0 123 48t40 133z" />
<glyph unicode="E" horiz-adv-x="469" d="M427 0h-370v667h370v-150h-207v-103h201v-150h-201v-114h207v-150z" />
<glyph unicode="F" horiz-adv-x="444" d="M421 517h-201v-113h194v-150h-194v-254h-163v667h364v-150z" />
<glyph unicode="G" horiz-adv-x="767" d="M739 345q0 -153 -102 -255.5t-255 -102.5q-148 0 -250.5 101t-102.5 248q0 148 104 246t253 98q111 0 207 -66t125 -171h-191q-47 87 -146 87q-79 0 -130.5 -54t-51.5 -133q0 -91 52 -149t142 -58q54 0 94.5 28t52.5 79h-198v136h395q2 -22 2 -34z" />
<glyph unicode="H" horiz-adv-x="671" d="M615 0h-170v267h-218v-267h-170v667h170v-250h218v250h170v-667z" />
<glyph unicode="I" horiz-adv-x="283" d="M227 0h-170v667h170v-667z" />
<glyph unicode="J" horiz-adv-x="504" d="M454 263q0 -45 -1 -68t-11 -59.5t-29 -61.5q-33 -42 -83.5 -64.5t-105.5 -22.5q-69 0 -127 34t-81 95q-16 42 -16 98h181q4 -77 52 -77q23 0 35 14.5t14 29.5t2 40v446h170v-404z" />
<glyph unicode="K" horiz-adv-x="603" d="M610 0h-200l-183 288v-288h-170v667h170v-301l190 301h179l-222 -333z" />
<glyph unicode="L" horiz-adv-x="437" d="M424 0h-367v667h170v-517h197v-150z" />
<glyph unicode="M" horiz-adv-x="817" d="M760 0h-157l6 501l-144 -501h-113l-144 501l5 -501h-156v667h219l132 -439l132 439h220v-667z" />
<glyph unicode="N" horiz-adv-x="676" d="M619 0h-148l-258 405l7 -405h-163v667h146l260 -420l-7 420h163v-667z" />
<glyph unicode="O" horiz-adv-x="761" d="M733 333q0 -147 -103 -246.5t-251 -99.5q-147 0 -248.5 99.5t-101.5 245.5q0 148 101 248t249 100t251 -100t103 -247zM563 332q0 81 -51 139.5t-131 58.5t-131 -57t-51 -138q0 -82 51.5 -140t132.5 -58q78 0 129 57.5t51 137.5z" />
<glyph unicode="P" horiz-adv-x="578" d="M558 440q0 -49 -18 -95.5t-52 -77.5q-15 -14 -32 -24.5t-38 -16.5l-36 -10q-15 -4 -42 -5.5t-39 -2.5h-16.5h-26.5q-30 1 -38 1v-209h-163v667h218q68 0 117.5 -9.5t87.5 -40.5q78 -65 78 -177zM395 438q0 47 -30.5 63t-82.5 16h-62v-157h69q106 0 106 78z" />
<glyph unicode="Q" horiz-adv-x="765" d="M767 -12q-28 -2 -42 -2q-106 0 -156 53q-86 -52 -181 -52q-149 0 -254 97.5t-105 245.5q0 147 101.5 248.5t248.5 101.5q150 0 254 -100.5t104 -249.5q0 -99 -57 -184q25 -23 78 -23h9v-135zM567 340q0 82 -53 136t-135 54q-73 0 -120 -47t-59 -121q53 22 95 22 q131 0 249 -143q23 55 23 99zM448 162q-75 98 -171 98q-27 0 -60 -11q21 -49 64.5 -80.5t95.5 -31.5q34 0 71 25z" />
<glyph unicode="R" horiz-adv-x="586" d="M570 0h-195l-155 216v-216h-163v667h211q48 0 74.5 -1.5t65 -13t65.5 -33.5q82 -68 82 -183q0 -80 -44 -138t-122 -71zM391 426q0 47 -30 69t-79 22h-62v-185h60q49 0 80 23t31 71z" />
<glyph unicode="S" horiz-adv-x="516" d="M489 191q0 -101 -64.5 -152.5t-168.5 -51.5q-106 0 -174 54t-68 157v22h171q0 -37 17 -63.5t52 -26.5q27 0 46.5 18.5t19.5 45.5t-19.5 43t-51.5 29q-9 4 -39 16t-44 18.5t-36 19t-38 25.5q-67 56 -67 138q0 89 71 143t163 54q52 0 100.5 -19.5t79.5 -56.5q25 -30 34 -58 t11 -73h-169q-8 64 -61 64q-22 0 -40.5 -14.5t-18.5 -36.5q0 -40 57 -66l46 -20q36 -16 50 -23t42 -23t41 -29.5t29 -34t22.5 -45t6.5 -54.5z" />
<glyph unicode="T" horiz-adv-x="447" d="M441 517h-132v-517h-170v517h-132v150h434v-150z" />
<glyph unicode="U" horiz-adv-x="612" d="M562 263q0 -68 -13.5 -116t-52.5 -88q-71 -72 -189 -72q-119 0 -190 71q-42 42 -54.5 87.5t-12.5 117.5v404h170v-404q0 -37 5.5 -62t25.5 -44.5t56 -19.5q28 0 46 10t26 29.5t10.5 38.5t2.5 48v404h170v-404z" />
<glyph unicode="V" horiz-adv-x="602" d="M612 667l-224 -667h-175l-223 667h176l135 -468l135 468h176z" />
<glyph unicode="W" horiz-adv-x="868" d="M861 667l-177 -667h-150l-101 431l-101 -431h-153l-172 667h173l89 -434l99 434h131l98 -436l91 436h173z" />
<glyph unicode="X" horiz-adv-x="644" d="M654 0h-193l-144 236l-137 -236h-190l233 355l-206 312h193l114 -191l111 191h192l-204 -315z" />
<glyph unicode="Y" horiz-adv-x="547" d="M557 667l-198 -424v-243h-170v243l-199 424h185l99 -268l100 268h183z" />
<glyph unicode="Z" horiz-adv-x="457" d="M437 0h-420v112l230 405h-230v150h420v-138l-213 -379h213v-150z" />
<glyph unicode="[" horiz-adv-x="372" d="M312 -238q-3 1 -23 5t-24.5 5t-20.5 5t-22 7l-20 7q-12 5 -22 11t-20 14q-57 42 -78.5 97t-21.5 134v349q0 78 21.5 132.5t78.5 97.5q54 41 152 54v-147q-56 -2 -77.5 -31.5t-21.5 -88.5v-383q0 -59 21.5 -89t77.5 -32v-147z" />
<glyph unicode="\" d="M457 -83h-123l-307 833h124z" />
<glyph unicode="]" horiz-adv-x="372" d="M312 47q0 -79 -21.5 -134t-78.5 -97q-32 -24 -60 -34t-75 -17q-16 -3 -17 -3v147q56 2 77.5 32t21.5 89v383q0 59 -21.5 88.5t-77.5 31.5v147l15 -2q46 -6 74.5 -16.5t62.5 -35.5q42 -32 66 -72q34 -57 34 -158v-349z" />
<glyph unicode="^" d="M494 336h-132l-112 233l-112 -233h-132l161 334h166z" />
<glyph unicode="_" d="M500 -161h-500v114h500v-114z" />
<glyph unicode="`" d="M344 617l-51 -74l-204 131l60 91z" />
<glyph unicode="a" horiz-adv-x="627" d="M577 0h-141v54q-36 -71 -155 -71q-116 0 -185 75t-69 192q0 116 71 192t186 76q112 0 152 -71v53h141v-500zM427 251q0 54 -36 90t-90 36q-53 0 -88.5 -37t-35.5 -90t36 -90t89 -37q55 0 90 36.5t35 91.5z" />
<glyph unicode="b" horiz-adv-x="618" d="M591 253q0 -115 -69.5 -192.5t-183.5 -77.5q-47 0 -79 16.5t-67 54.5v-54h-142v667h150v-207q54 57 144 57q110 0 178.5 -76t68.5 -188zM441 250q0 53 -35 90t-88 37q-54 0 -89 -36.5t-35 -90.5t34.5 -90.5t87.5 -36.5q54 0 89.5 36.5t35.5 90.5z" />
<glyph unicode="c" horiz-adv-x="574" d="M557 190q-22 -92 -95 -149.5t-167 -57.5q-113 0 -190.5 77.5t-77.5 190.5q0 112 76 189t188 77q97 0 171 -58t94 -152h-151q-14 33 -43.5 51.5t-65.5 18.5q-53 0 -86 -37.5t-33 -91.5t33 -89.5t86 -35.5q67 0 110 67h151z" />
<glyph unicode="d" horiz-adv-x="623" d="M573 0h-142v53q-56 -70 -153 -70q-112 0 -181.5 77t-69.5 191q0 111 69 188.5t179 77.5q89 0 148 -59v209h150v-667zM431 252q0 54 -36 89.5t-90 35.5q-55 0 -91.5 -35.5t-36.5 -90.5t35.5 -91.5t90.5 -36.5q56 0 92 36.5t36 92.5z" />
<glyph unicode="e" horiz-adv-x="578" d="M551 244q0 -22 -4 -41h-375q5 -43 35.5 -68t74.5 -25q53 0 92 39l7 7h152q-33 -78 -97 -125.5t-146 -47.5q-110 0 -186.5 78t-76.5 188t75 189t185 79q114 0 189 -79t75 -194zM401 303q-8 40 -39.5 63.5t-73.5 23.5q-43 0 -73 -23t-39 -64h225z" />
<glyph unicode="f" horiz-adv-x="294" d="M277 387h-64v-387h-150v387h-55v113h55v26q0 85 51 119.5t140 34.5h23v-113q-41 0 -52.5 -12.5t-11.5 -54.5h64v-113z" />
<glyph unicode="g" horiz-adv-x="620" d="M570 60q0 -89 -9 -121q-10 -36 -35 -64q-85 -98 -239 -98q-93 0 -166 44.5t-84 131.5h173q22 -49 88 -49q60 0 90.5 37t30.5 98v16q-17 -34 -61.5 -53t-87.5 -19q-105 0 -174 78.5t-69 185.5q0 113 71.5 191.5t183.5 78.5q96 0 146 -63v46h142v-440zM420 248 q0 55 -33.5 92t-87.5 37q-52 0 -87 -36.5t-35 -88.5q0 -54 33.5 -91.5t87.5 -37.5t88 35.5t34 89.5z" />
<glyph unicode="h" horiz-adv-x="560" d="M513 0h-150v273q0 104 -80 104q-83 0 -83 -100v-277h-150v667h150v-212q38 62 131 62q85 0 135 -54q23 -24 34 -59t12 -56t1 -69v-279z" />
<glyph unicode="i" horiz-adv-x="250" d="M200 553h-150v114h150v-114zM200 0h-150v500h150v-500z" />
<glyph unicode="j" horiz-adv-x="250" d="M200 553h-150v114h150v-114zM200 11q0 -108 -40 -151t-146 -43h-37v113h20q33 0 43 19t10 57v494h150v-489z" />
<glyph unicode="k" horiz-adv-x="511" d="M518 500l-189 -219l184 -281h-170l-143 241v-241h-150v667h150v-348l141 181h177z" />
<glyph unicode="l" horiz-adv-x="250" d="M200 0h-150v667h150v-667z" />
<glyph unicode="m" horiz-adv-x="864" d="M817 0h-150v266q0 33 -4 54.5t-21.5 39t-48.5 17.5q-82 0 -82 -104v-273h-150v273q0 104 -77 104q-84 0 -84 -104v-273h-150v500h142v-53q45 70 137 70q96 0 145 -89q55 89 159 89q76 0 129 -50q27 -26 40 -61.5t14 -57t1 -75.5v-273z" />
<glyph unicode="n" horiz-adv-x="560" d="M513 0h-150v273q0 49 -16.5 76.5t-61.5 27.5q-85 0 -85 -98v-279h-150v500h142v-53q49 70 137 70q81 0 134 -51q32 -31 41 -65t9 -88v-313z" />
<glyph unicode="o" horiz-adv-x="595" d="M567 250q0 -115 -77 -191t-192 -76q-116 0 -193.5 74.5t-77.5 189.5q0 117 76.5 193.5t193.5 76.5q115 0 192.5 -76t77.5 -191zM417 250q0 52 -34 89.5t-85 37.5q-52 0 -86.5 -37t-34.5 -89q0 -54 34 -91t87 -37q52 0 85.5 37t33.5 90z" />
<glyph unicode="p" horiz-adv-x="623" d="M594 246q0 -109 -68.5 -186t-175.5 -77q-94 0 -150 63v-213h-150v667h141v-55q56 72 158 72q112 0 178.5 -78.5t66.5 -192.5zM444 250q0 54 -36 90.5t-90 36.5q-52 0 -88.5 -36.5t-36.5 -88.5q0 -54 36 -91.5t90 -37.5q53 0 89 37t36 90z" />
<glyph unicode="q" horiz-adv-x="623" d="M573 -167h-150v218q-60 -68 -154 -68q-107 0 -174.5 75t-67.5 183q0 117 69 196.5t184 79.5q99 0 151 -72v55h142v-667zM429 249q0 54 -36.5 91t-90.5 37t-89.5 -37t-35.5 -91q0 -53 37 -89.5t90 -36.5q52 0 88.5 37t36.5 89z" />
<glyph unicode="r" horiz-adv-x="323" d="M317 367q-58 -1 -88 -19.5t-30 -71.5v-276h-149v500h142v-53q22 38 51 54t74 16v-150z" />
<glyph unicode="s" horiz-adv-x="445" d="M423 153q0 -78 -63.5 -124t-144.5 -46t-136 43.5t-64 122.5h149q6 -46 57 -46q18 0 35 10.5t17 27.5q0 35 -58 50l-44 11l-44 12q-46 12 -76 51t-30 87q0 75 62 120t140 45q76 0 126.5 -41t57.5 -116h-146q-4 37 -43 37q-18 0 -32.5 -8t-14.5 -24q0 -33 77 -55l28 -8 l30 -8q9 -3 26 -9.5t26.5 -13t21.5 -17t20 -23.5q23 -35 23 -78z" />
<glyph unicode="t" horiz-adv-x="293" d="M285 387h-72v-387h-150v387h-73v113h73v167h150v-167h72v-113z" />
<glyph unicode="u" horiz-adv-x="562" d="M512 0h-142v53q-35 -70 -132 -70q-92 0 -146 63q-29 33 -37 66.5t-8 88.5v299h150v-279q0 -48 17.5 -73t62.5 -25q43 0 64 27t21 71v279h150v-500z" />
<glyph unicode="v" horiz-adv-x="483" d="M493 500l-180 -500h-143l-180 500h155l96 -312l97 312h155z" />
<glyph unicode="w" horiz-adv-x="753" d="M753 500l-153 -500h-139l-85 323l-84 -323h-139l-153 500h154l76 -311l83 311h127l83 -311l76 311h154z" />
<glyph unicode="x" horiz-adv-x="545" d="M555 0h-183l-100 155l-103 -155h-179l190 268l-168 232h179l81 -131l80 131h177l-168 -232z" />
<glyph unicode="y" horiz-adv-x="496" d="M506 500l-251 -667h-158l79 192l-186 475h159l101 -290l97 290h159z" />
<glyph unicode="z" horiz-adv-x="405" d="M389 0h-372v103l210 284h-210v113h372v-114l-196 -273h196v-113z" />
<glyph unicode="{" d="M402 -193h-12q-10 0 -24 -1q-23 -1 -32 -1q-84 0 -121 31t-37 114v155q0 37 -11 58.5t-44 27.5v107q55 12 55 77v156q0 84 37.5 114t123.5 30q5 0 16 -1t16 -1h33v-112h-20q-20 0 -28.5 -0.5t-21 -3t-17.5 -8.5t-9 -17t-4 -28v-138q0 -49 -11.5 -74.5t-48.5 -51.5 q36 -23 48 -50.5t12 -75.5v-138q0 -17 4 -28.5t8.5 -17t18 -8t21 -3t28.5 -0.5h20v-112z" />
<glyph unicode="|" d="M313 -250h-126v1000h126v-1000z" />
<glyph unicode="}" d="M401 182q-55 -12 -55 -77v-156q0 -82 -37 -113t-121 -31q-9 0 -32 1q-13 1 -23 1h-12v112h20q20 0 28 0.5t20.5 3t17.5 8.5t9 17t4 28v138q0 49 11.5 74.5t48.5 51.5q-36 23 -48 50.5t-12 75.5v138q0 21 -4.5 33.5t-18 17.5t-23 5.5t-35.5 0.5h-18v112h12q10 0 23 1 q23 1 32 1q84 0 121 -31.5t37 -113.5v-155q0 -37 11 -58.5t44 -27.5v-107z" />
<glyph unicode="~" horiz-adv-x="667" d="M577 705q-15 -31 -24 -47.5t-27.5 -36.5t-41.5 -32q-36 -17 -66 -17q-29 0 -93.5 25.5t-91.5 25.5q-28 0 -42.5 -14.5t-30.5 -47.5l-70 46q2 3 4 8.5t4 8.5q27 61 57 91t86 30q32 0 98 -25.5t93 -25.5t42 12.5t31 40.5z" />
<glyph unicode="&#xa1;" horiz-adv-x="295" d="M225 347h-155v153h155v-153zM225 -167h-155v447h155v-447z" />
<glyph unicode="&#xa2;" horiz-adv-x="550" d="M497 293q-11 -63 -54.5 -110t-105.5 -60v-95h-124v95q-73 24 -116.5 80.5t-43.5 132.5t44 135.5t116 82.5v95h118v-91q64 -18 111.5 -67t54.5 -113h-155q-20 36 -64 36q-32 0 -54.5 -23t-22.5 -54q0 -32 22.5 -53.5t54.5 -21.5q35 0 61 31h158z" />
<glyph unicode="&#xa3;" horiz-adv-x="550" d="M553 170q0 -77 -59 -123.5t-138 -46.5h-320v133q5 0 19 -0.5t23 -0.5t23.5 1t23.5 4.5t18.5 8.5t14 14t4.5 21q0 7 -2 15t-3.5 12.5t-7 13.5t-7 11t-10 12t-8.5 11h-116v120h44q-25 47 -25 85q0 94 72.5 156.5t167.5 62.5q62 0 115.5 -27.5t85.5 -78.5q26 -42 34 -116 h-157q-7 72 -69 72q-34 0 -56.5 -24t-22.5 -58q0 -35 30 -72h141v-120h-69q29 -32 29 -62q0 -31 -35 -61h38q73 0 73 62q0 15 -6 32h145q10 -29 10 -57z" />
<glyph unicode="&#xa4;" horiz-adv-x="667" d="M645 137l-68 -69l-102 102q-68 -45 -142 -45q-68 0 -140 45l-102 -102l-69 69l103 102q-45 64 -45 138q0 70 45 137l-104 104l69 69l104 -104q67 44 140 44t138 -43l102 102l68 -69l-101 -101q46 -73 46 -140q0 -68 -44 -136zM471 376q0 57 -40 98t-97 41 q-58 0 -98 -40.5t-40 -98.5q0 -57 40.5 -97.5t97.5 -40.5t97 40.5t40 97.5z" />
<glyph unicode="&#xa5;" horiz-adv-x="550" d="M539 667l-90 -211h59v-105h-104l-34 -79h111v-105h-124v-167h-163v167h-125v105h112l-38 89h-101v105h55l-86 201h169l96 -268l96 268h167z" />
<glyph unicode="&#xa6;" d="M333 312h-165v355h165v-355zM333 -167h-165v320h165v-320z" />
<glyph unicode="&#xa7;" horiz-adv-x="550" d="M541 222q0 -46 -19 -77.5t-59 -64.5q47 -61 47 -128q0 -91 -66 -143.5t-160 -52.5q-103 0 -173.5 56.5t-78.5 156.5h148q13 -77 101 -77q31 0 56.5 15t25.5 44q0 6 -1.5 12t-5.5 11l-7 10q-3 4 -9.5 8.5t-10 7.5t-11.5 7l-12 5q-3 2 -12 6t-10 5l-154 71q-59 27 -90 62.5 t-31 94.5q0 87 86 151q-28 41 -28 100q0 86 63.5 132t152.5 46q87 0 150 -50t67 -135h-147q-15 52 -79 52q-63 0 -63 -47q0 -14 9.5 -25.5t18 -16t25.5 -12.5l164 -74q56 -25 84.5 -59t28.5 -91zM408 196q0 15 -11.5 28t-21.5 18.5t-28 13.5l-166 75q-36 -15 -36 -49 q0 -35 48 -57l182 -84q33 23 33 55z" />
<glyph unicode="&#xa8;" d="M422 567h-144v136h144v-136zM222 567h-144v136h144v-136z" />
<glyph unicode="&#xa9;" horiz-adv-x="747" d="M720 333q0 -144 -101.5 -245t-245.5 -101q-143 0 -244.5 101.5t-101.5 244.5q0 144 101 245.5t245 101.5t245.5 -101.5t101.5 -245.5zM658 333q0 119 -83 203.5t-202 84.5q-118 0 -201.5 -85t-83.5 -203t83.5 -202.5t201.5 -84.5t201.5 84t83.5 203zM586 283 q-18 -71 -76 -114.5t-132 -43.5q-90 0 -153.5 60t-63.5 149q0 88 63 147.5t152 59.5q74 0 136 -45t74 -115h-110q-13 32 -39.5 51t-60.5 19q-48 0 -79 -34t-31 -83t31 -84t79 -35q67 0 100 68h110z" />
<glyph unicode="&#xaa;" horiz-adv-x="367" d="M319 400h-79v23q-25 -32 -80 -32q-62 0 -99.5 40t-37.5 103q0 62 38 102t100 40q56 0 79 -32v23h79v-267zM312 297h-282v33h282v-33zM235 534q0 28 -18.5 46t-46.5 18q-27 0 -45 -19t-18 -46t18.5 -45.5t45.5 -18.5q28 0 46 18.5t18 46.5z" />
<glyph unicode="&#xab;" horiz-adv-x="368" d="M313 86l-116 115v115l116 118v-133l-47 -41l47 -42v-132zM149 86l-116 115v115l116 118v-133l-46 -41l46 -42v-132z" />
<glyph unicode="&#xac;" d="M467 0h-127v153h-307v114h434v-267z" />
<glyph unicode="&#xad;" horiz-adv-x="253" d="M253 193h-253v127h253v-127z" />
<glyph unicode="&#xae;" horiz-adv-x="513" d="M469 557q0 -88 -62 -150t-150 -62t-150 62t-62 150t62 150t150 62t150 -62t62 -150zM429 557q0 71 -50.5 121.5t-121.5 50.5q-72 0 -122.5 -50t-50.5 -122t50.5 -122.5t122.5 -50.5t122 50.5t50 122.5zM357 447h-73l-50 67v-67h-62v220h75q101 0 101 -77q0 -25 -14.5 -45 t-38.5 -25zM289 586q0 28 -37 28h-20v-56h20q37 0 37 28z" />
<glyph unicode="&#xaf;" d="M410 593h-320v87h320v-87z" />
<glyph unicode="&#xb0;" d="M404 510q0 -63 -45.5 -107.5t-108.5 -44.5t-108.5 44.5t-45.5 107.5t45.5 107t108.5 44t108.5 -44t45.5 -107zM328 510q0 32 -23 54t-55 22t-55 -22t-23 -54t23 -54.5t55 -22.5t55 22.5t23 54.5z" />
<glyph unicode="&#xb1;" d="M467 51h-434v117h434v-117zM467 356h-154v-154h-126v154h-154v117h154v154h126v-154h154v-117z" />
<glyph unicode="&#xb2;" horiz-adv-x="374" d="M343 267h-310v82q45 26 52 31q47 30 93.5 78.5t46.5 87.5q0 16 -11.5 26t-27.5 10q-45 0 -47 -63h-110q2 61 26 94q45 62 136 62q58 0 103.5 -31t45.5 -87q0 -31 -11.5 -59.5t-37 -56.5t-42.5 -43.5t-49 -41.5h143v-89z" />
<glyph unicode="&#xb3;" horiz-adv-x="372" d="M345 386q0 -58 -50.5 -93t-111.5 -35q-42 0 -82 15.5t-60 47.5q-17 27 -20 67h116q9 -37 48 -37q19 0 32.5 10t13.5 28q0 10 -3.5 17t-11 11t-14.5 6.5t-18 3.5t-18 1t-18 -0.5t-15 -0.5v78h21q6 0 18.5 2.5t18.5 6.5t11 12.5t5 21.5q0 14 -7.5 23.5t-20.5 9.5 q-32 0 -34 -34h-113q1 61 44 94.5t106 33.5q53 0 96 -29t43 -80q0 -56 -54 -85q78 -25 78 -95z" />
<glyph unicode="&#xb4;" d="M411 674l-204 -131l-51 74l195 148z" />
<glyph unicode="&#xb5;" d="M474 0h-126v58q-33 -68 -98 -68q-62 0 -96 61v-224h-126v653h126v-255q0 -135 99 -135q95 0 95 139v251h126v-480z" />
<glyph unicode="&#xb6;" horiz-adv-x="662" d="M589 569h-73v-661h-107v661h-84v-661h-108v413q-2 0 -5.5 -0.5t-5.5 -0.5q-78 0 -128.5 46.5t-50.5 123.5q0 177 230 177h332v-98z" />
<glyph unicode="&#xb7;" horiz-adv-x="173" d="M173 254h-173v172h173v-172z" />
<glyph unicode="&#xb8;" d="M347 -123q0 -40 -28.5 -65t-68.5 -25q-82 0 -91 77h60q11 -25 31 -25q15 0 25 9.5t10 24.5q0 13 -8.5 22t-22.5 9q-15 0 -27 -14l-44 32l37 78h61l-26 -52q1 0 8.5 1.5t11.5 1.5q30 0 51 -22t21 -52z" />
<glyph unicode="&#xb9;" horiz-adv-x="374" d="M260 267h-115v311h-71v89h186v-400z" />
<glyph unicode="&#xba;" horiz-adv-x="367" d="M328 533q0 -61 -41 -101.5t-103 -40.5t-104 39.5t-42 101.5t41.5 102.5t103.5 40.5t103.5 -40t41.5 -102zM322 297h-277v33h277v-33zM245 533q0 27 -17.5 46t-44.5 19q-26 0 -43.5 -19t-17.5 -45q0 -27 17.5 -46t44.5 -19t44 18.5t17 45.5z" />
<glyph unicode="&#xbb;" horiz-adv-x="353" d="M156 200l-116 -114v133l46 41l-46 42v132l116 -118v-116zM319 200l-116 -114v133l47 41l-47 42v132l116 -118v-116z" />
<glyph unicode="&#xbc;" horiz-adv-x="901" d="M260 267h-115v311h-71v89h186v-400zM888 70h-48v-70h-110v70h-191v77l195 253h106v-247h48v-83zM636 667l-280 -667h-92l280 667h92zM741 149v126l-89 -126h89z" />
<glyph unicode="&#xbd;" horiz-adv-x="900" d="M260 267h-115v311h-71v89h186v-400zM869 0h-310v82q45 26 52 31q47 30 93.5 78.5t46.5 87.5q0 16 -11.5 26t-27.5 10q-45 0 -47 -63h-110q2 60 26 94q45 62 136 62q58 0 103.5 -31t45.5 -87q0 -31 -12 -60t-36.5 -56t-42.5 -43.5t-49 -41.5h143v-89zM636 667l-280 -667 h-92l280 667h92z" />
<glyph unicode="&#xbe;" horiz-adv-x="899" d="M345 386q0 -58 -50.5 -93t-111.5 -35q-42 0 -82 15.5t-60 47.5q-17 27 -20 67h116q9 -37 48 -37q19 0 32.5 10t13.5 28q0 10 -3.5 17t-11 11t-14.5 6.5t-18 3.5t-18 1t-18 -0.5t-15 -0.5v78h21q6 0 18.5 2.5t18.5 6.5t11 12.5t5 21.5q0 14 -7.5 23.5t-20.5 9.5 q-32 0 -34 -34h-113q1 61 44 94.5t106 33.5q53 0 96 -29t43 -80q0 -56 -54 -85q78 -25 78 -95zM886 70h-48v-70h-110v70h-190v77l194 253h106v-247h48v-83zM635 667l-281 -667h-91l280 667h92zM739 149v126l-88 -126h88z" />
<glyph unicode="&#xbf;" horiz-adv-x="496" d="M356 347h-155v153h155v-153zM482 44q0 -99 -68 -161.5t-168 -62.5q-87 0 -151.5 53.5t-64.5 137.5q0 41 16.5 75.5t40.5 58.5t48.5 45.5t43.5 46.5t22 51h155q0 -43 -24 -81.5t-52.5 -62.5t-52.5 -54.5t-24 -59.5q0 -56 52 -56q37 0 49 23t13 64h165v-17z" />
<glyph unicode="&#xc0;" horiz-adv-x="660" d="M664 0h-185l-32 97h-232l-35 -97h-183l267 667h135zM401 232l-69 228l-70 -228h139zM476 802l-45 -92l-246 108l50 114z" />
<glyph unicode="&#xc1;" horiz-adv-x="660" d="M664 0h-185l-32 97h-232l-35 -97h-183l267 667h135zM401 232l-69 228l-70 -228h139zM476 818l-247 -108l-44 92l240 130z" />
<glyph unicode="&#xc2;" horiz-adv-x="660" d="M664 0h-185l-32 97h-232l-35 -97h-183l267 667h135zM401 232l-69 228l-70 -228h139zM534 733h-158l-46 64l-44 -64h-159l131 150h148z" />
<glyph unicode="&#xc3;" horiz-adv-x="660" d="M664 0h-185l-32 97h-232l-35 -97h-183l267 667h135zM401 232l-69 228l-70 -228h139zM536 786q-61 -41 -122 -41q-25 0 -73.5 11.5t-72.5 11.5q-28 0 -74 -23l-70 89q60 40 120 40q25 0 74 -10.5t74 -10.5q38 0 80 21z" />
<glyph unicode="&#xc4;" horiz-adv-x="660" d="M664 0h-185l-32 97h-232l-35 -97h-183l267 667h135zM401 232l-69 228l-70 -228h139zM517 733h-157v150h157v-150zM300 733h-157v150h157v-150z" />
<glyph unicode="&#xc5;" horiz-adv-x="660" d="M664 0h-185l-32 97h-232l-35 -97h-183l267 667h135zM401 232l-69 228l-70 -228h139zM446 828q0 -47 -34.5 -81t-81.5 -34t-81 34t-34 81q0 48 33.5 81t81.5 33t82 -33t34 -81zM372 828q0 18 -12 30.5t-30 12.5t-29.5 -12.5t-11.5 -30.5q0 -17 12 -30t29 -13q18 0 30 12.5 t12 30.5z" />
<glyph unicode="&#xc6;" horiz-adv-x="858" d="M817 0h-371v111h-194l-72 -111h-207l464 667h380v-150h-208v-103h201v-150h-201v-114h208v-150zM446 243v182l-125 -182h125z" />
<glyph unicode="&#xc7;" horiz-adv-x="736" d="M717 249q-28 -114 -114.5 -188t-201.5 -74l-18 -34q12 2 19 2q34 0 56 -22t22 -56q0 -47 -31.5 -76.5t-78.5 -29.5q-44 0 -70.5 24t-30.5 67h70q10 -25 36 -25q14 0 23.5 9.5t9.5 23.5t-10 23.5t-24 9.5q-17 0 -29 -14l-51 31l36 70h-3q-129 18 -213.5 116.5t-84.5 228.5 q0 146 101.5 245.5t247.5 99.5q93 0 170 -41.5t126 -119.5q20 -32 29 -52.5t14 -53.5h-178q-20 53 -63.5 85t-98.5 32q-79 0 -128.5 -57.5t-49.5 -137.5t50 -139t129 -59q107 0 161 112h178z" />
<glyph unicode="&#xc8;" horiz-adv-x="469" d="M427 0h-370v667h370v-150h-207v-103h201v-150h-201v-114h207v-150zM387 802l-44 -92l-246 108l50 114z" />
<glyph unicode="&#xc9;" horiz-adv-x="469" d="M427 0h-370v667h370v-150h-207v-103h201v-150h-201v-114h207v-150zM387 818l-246 -108l-44 92l240 130z" />
<glyph unicode="&#xca;" horiz-adv-x="469" d="M427 0h-370v667h370v-150h-207v-103h201v-150h-201v-114h207v-150zM425 733h-141l-42 58l-41 -58h-142l133 150h104z" />
<glyph unicode="&#xcb;" horiz-adv-x="469" d="M427 0h-370v667h370v-150h-207v-103h201v-150h-201v-114h207v-150zM429 733h-157v150h157v-150zM212 733h-157v150h157v-150z" />
<glyph unicode="&#xcc;" horiz-adv-x="283" d="M227 0h-170v667h170v-667zM287 802l-44 -92l-247 108l51 114z" />
<glyph unicode="&#xcd;" horiz-adv-x="283" d="M227 0h-170v667h170v-667zM287 818l-246 -108l-45 92l240 130z" />
<glyph unicode="&#xce;" horiz-adv-x="283" d="M227 0h-170v667h170v-667zM290 733h-108l-40 77l-39 -77h-110l96 150h108z" />
<glyph unicode="&#xcf;" horiz-adv-x="283" d="M227 0h-170v667h170v-667zM278 733h-111v150h111v-150zM116 733h-111v150h111v-150z" />
<glyph unicode="&#xd0;" horiz-adv-x="662" d="M634 340q0 -149 -84 -244.5t-231 -95.5h-262v287h-57v120h57v260h224q116 0 177 -29q86 -40 131 -119.5t45 -178.5zM464 331q0 84 -40.5 135t-122.5 51h-74v-110h123v-120h-123v-137h73q82 0 123 48.5t41 132.5z" />
<glyph unicode="&#xd1;" horiz-adv-x="676" d="M619 0h-148l-258 405l7 -405h-163v667h146l260 -420l-7 420h163v-667zM544 786q-62 -41 -122 -41q-25 0 -73.5 11.5t-72.5 11.5q-26 0 -74 -23l-70 89q58 40 119 40q26 0 75 -10.5t74 -10.5q38 0 80 21z" />
<glyph unicode="&#xd2;" horiz-adv-x="761" d="M733 333q0 -147 -103 -246.5t-251 -99.5q-147 0 -248.5 99.5t-101.5 245.5q0 148 101 248t249 100t251 -100t103 -247zM563 332q0 81 -51 139.5t-131 58.5t-131 -57t-51 -138q0 -82 51.5 -140t132.5 -58q78 0 129 57.5t51 137.5zM526 802l-44 -92l-247 108l51 114z" />
<glyph unicode="&#xd3;" horiz-adv-x="761" d="M733 333q0 -147 -103 -246.5t-251 -99.5q-147 0 -248.5 99.5t-101.5 245.5q0 148 101 248t249 100t251 -100t103 -247zM563 332q0 81 -51 139.5t-131 58.5t-131 -57t-51 -138q0 -82 51.5 -140t132.5 -58q78 0 129 57.5t51 137.5zM526 818l-246 -108l-45 92l240 130z" />
<glyph unicode="&#xd4;" horiz-adv-x="761" d="M733 333q0 -147 -103 -246.5t-251 -99.5q-147 0 -248.5 99.5t-101.5 245.5q0 148 101 248t249 100t251 -100t103 -247zM563 332q0 81 -51 139.5t-131 58.5t-131 -57t-51 -138q0 -82 51.5 -140t132.5 -58q78 0 129 57.5t51 137.5zM584 733h-158l-45 64l-45 -64h-159 l132 150h148z" />
<glyph unicode="&#xd5;" horiz-adv-x="761" d="M733 333q0 -147 -103 -246.5t-251 -99.5q-147 0 -248.5 99.5t-101.5 245.5q0 148 101 248t249 100t251 -100t103 -247zM563 332q0 81 -51 139.5t-131 58.5t-131 -57t-51 -138q0 -82 51.5 -140t132.5 -58q78 0 129 57.5t51 137.5zM586 786q-61 -41 -122 -41 q-24 0 -73 11.5t-73 11.5q-28 0 -74 -23l-69 89q60 40 119 40q25 0 74 -10.5t74 -10.5q38 0 80 21z" />
<glyph unicode="&#xd6;" horiz-adv-x="761" d="M733 333q0 -147 -103 -246.5t-251 -99.5q-147 0 -248.5 99.5t-101.5 245.5q0 148 101 248t249 100t251 -100t103 -247zM563 332q0 81 -51 139.5t-131 58.5t-131 -57t-51 -138q0 -82 51.5 -140t132.5 -58q78 0 129 57.5t51 137.5zM567 733h-156v150h156v-150zM351 733 h-157v150h157v-150z" />
<glyph unicode="&#xd7;" horiz-adv-x="550" d="M491 196l-78 -79l-138 138l-138 -138l-78 79l138 137l-138 138l78 78l138 -137l138 137l78 -78l-138 -138z" />
<glyph unicode="&#xd8;" horiz-adv-x="761" d="M733 333q0 -147 -103 -246.5t-251 -99.5q-79 0 -148 30q-1 0 -3 2l-56 -76l-106 78l55 75q-1 0 -1 1t-1 2q-47 57 -68.5 110.5t-21.5 123.5q0 149 101.5 248t250.5 99q50 0 79 -6t71 -26l59 78l106 -76l-58 -78l1 -1q1 -1 1 -2q48 -57 70.5 -111.5t22.5 -124.5zM563 332 q0 51 -26 103l-214 -289q26 -9 59 -9q79 0 130 57.5t51 137.5zM437 521q-24 9 -56 9q-79 0 -130.5 -57t-51.5 -137q0 -56 24 -103z" />
<glyph unicode="&#xd9;" horiz-adv-x="612" d="M562 263q0 -68 -13.5 -116t-52.5 -88q-71 -72 -189 -72q-119 0 -190 71q-42 42 -54.5 87.5t-12.5 117.5v404h170v-404q0 -37 5.5 -62t25.5 -44.5t56 -19.5q28 0 46 10t26 29.5t10.5 38.5t2.5 48v404h170v-404zM451 802l-44 -92l-246 108l50 114z" />
<glyph unicode="&#xda;" horiz-adv-x="612" d="M562 263q0 -68 -13.5 -116t-52.5 -88q-71 -72 -189 -72q-119 0 -190 71q-42 42 -54.5 87.5t-12.5 117.5v404h170v-404q0 -37 5.5 -62t25.5 -44.5t56 -19.5q28 0 46 10t26 29.5t10.5 38.5t2.5 48v404h170v-404zM451 818l-246 -108l-44 92l240 130z" />
<glyph unicode="&#xdb;" horiz-adv-x="612" d="M562 263q0 -68 -13.5 -116t-52.5 -88q-71 -72 -189 -72q-119 0 -190 71q-42 42 -54.5 87.5t-12.5 117.5v404h170v-404q0 -37 5.5 -62t25.5 -44.5t56 -19.5q28 0 46 10t26 29.5t10.5 38.5t2.5 48v404h170v-404zM510 733h-158l-46 64l-44 -64h-160l132 150h148z" />
<glyph unicode="&#xdc;" horiz-adv-x="612" d="M562 263q0 -68 -13.5 -116t-52.5 -88q-71 -72 -189 -72q-119 0 -190 71q-42 42 -54.5 87.5t-12.5 117.5v404h170v-404q0 -37 5.5 -62t25.5 -44.5t56 -19.5q28 0 46 10t26 29.5t10.5 38.5t2.5 48v404h170v-404zM493 733h-157v150h157v-150zM276 733h-157v150h157v-150z " />
<glyph unicode="&#xdd;" horiz-adv-x="547" d="M557 667l-198 -424v-243h-170v243l-199 424h185l99 -268l100 268h183zM466 818l-247 -108l-44 92l240 130z" />
<glyph unicode="&#xde;" horiz-adv-x="578" d="M558 354q0 -107 -70 -173q-15 -14 -31.5 -24.5t-38.5 -16.5l-36 -10q-14 -4 -42 -5.5t-38 -2.5h-16.5h-27.5q-32 1 -38 1v-123h-163v667h163v-87h36q15 1 25.5 1t15.5 -1q11 0 37.5 -1t41.5 -4.5t36 -9t37.5 -14t30.5 -20.5q78 -65 78 -177zM388 353q0 38 -29 61 q-21 16 -77 16h-62v-157h69q50 0 73 21q26 24 26 59z" />
<glyph unicode="&#xdf;" horiz-adv-x="617" d="M590 205q0 -94 -69 -158t-164 -64q-52 0 -87 17.5t-73 57.5v-58h-150v385q0 51 2 78.5t15.5 65t39.5 67.5q38 41 90.5 64.5t107.5 23.5q83 0 147.5 -53t64.5 -135q0 -72 -64 -117q61 -14 100.5 -62.5t39.5 -111.5zM440 205q0 41 -29 62.5t-72 21.5h-81v112h30q34 0 55 18 t21 52q0 33 -22.5 53t-55.5 20q-89 0 -89 -117v-239h83q19 -65 78 -65q34 0 58 23.5t24 58.5z" />
<glyph unicode="&#xe0;" horiz-adv-x="627" d="M577 0h-141v54q-36 -71 -155 -71q-116 0 -185 75t-69 192q0 116 71 192t186 76q112 0 152 -71v53h141v-500zM427 251q0 54 -36 90t-90 36q-53 0 -88.5 -37t-35.5 -90t36 -90t89 -37q55 0 90 36.5t35 91.5zM440 617l-51 -74l-204 131l59 91z" />
<glyph unicode="&#xe1;" horiz-adv-x="627" d="M577 0h-141v54q-36 -71 -155 -71q-116 0 -185 75t-69 192q0 116 71 192t186 76q112 0 152 -71v53h141v-500zM427 251q0 54 -36 90t-90 36q-53 0 -88.5 -37t-35.5 -90t36 -90t89 -37q55 0 90 36.5t35 91.5zM442 674l-203 -131l-51 74l195 148z" />
<glyph unicode="&#xe2;" horiz-adv-x="627" d="M577 0h-141v54q-36 -71 -155 -71q-116 0 -185 75t-69 192q0 116 71 192t186 76q112 0 152 -71v53h141v-500zM427 251q0 54 -36 90t-90 36q-53 0 -88.5 -37t-35.5 -90t36 -90t89 -37q55 0 90 36.5t35 91.5zM488 560h-142l-41 58l-41 -58h-143l133 149h104z" />
<glyph unicode="&#xe3;" horiz-adv-x="627" d="M577 0h-141v54q-36 -71 -155 -71q-116 0 -185 75t-69 192q0 116 71 192t186 76q112 0 152 -71v53h141v-500zM427 251q0 54 -36 90t-90 36q-53 0 -88.5 -37t-35.5 -90t36 -90t89 -37q55 0 90 36.5t35 91.5zM500 615q-55 -38 -111 -38q-23 0 -67 9.5t-66 9.5q-25 0 -71 -20 l-58 80q62 35 105 35q23 0 68.5 -9t68.5 -9q32 0 74 18z" />
<glyph unicode="&#xe4;" horiz-adv-x="627" d="M577 0h-141v54q-36 -71 -155 -71q-116 0 -185 75t-69 192q0 116 71 192t186 76q112 0 152 -71v53h141v-500zM427 251q0 54 -36 90t-90 36q-53 0 -88.5 -37t-35.5 -90t36 -90t89 -37q55 0 90 36.5t35 91.5zM494 567h-143v136h143v-136zM294 567h-143v136h143v-136z" />
<glyph unicode="&#xe5;" horiz-adv-x="627" d="M577 0h-141v54q-36 -71 -155 -71q-116 0 -185 75t-69 192q0 116 71 192t186 76q112 0 152 -71v53h141v-500zM427 251q0 54 -36 90t-90 36q-53 0 -88.5 -37t-35.5 -90t36 -90t89 -37q55 0 90 36.5t35 91.5zM425 662q0 -46 -33 -79t-80 -33q-46 0 -79 33t-33 79t33 78.5 t79 32.5q47 0 80 -32.5t33 -78.5zM355 662q0 18 -12.5 31t-30.5 13t-30.5 -13t-12.5 -31t12.5 -31.5t30.5 -13.5t30.5 13.5t12.5 31.5z" />
<glyph unicode="&#xe6;" horiz-adv-x="979" d="M952 241q0 -24 -4 -38h-375q6 -43 37.5 -68t76.5 -25q31 0 52.5 11t44.5 37h151q-31 -74 -80 -115q-69 -60 -157 -60q-90 0 -135 71v-54h-136v54q-31 -71 -147 -71q-115 0 -184 75.5t-69 191.5t71 191.5t186 75.5q102 0 143 -70v53h136v-53q45 70 135 70q111 0 182.5 -82 t71.5 -194zM804 303q-24 87 -112 87q-42 0 -75.5 -23.5t-40.5 -63.5h228zM427 250q0 57 -35.5 92t-92.5 35q-52 0 -87 -37t-35 -90t37 -90t90 -37t88 36.5t35 90.5z" />
<glyph unicode="&#xe7;" horiz-adv-x="574" d="M557 190q-20 -86 -87.5 -143.5t-155.5 -62.5l-18 -36q18 3 20 3q30 0 51 -22t21 -52q0 -40 -28.5 -65t-68.5 -25q-80 0 -91 77h61q8 -25 30 -25q15 0 25 9.5t10 24.5q0 13 -9 22t-22 9q-15 0 -27 -14l-44 32l31 64q-99 14 -163.5 89.5t-64.5 175.5q0 112 76 189t188 77 q97 0 171.5 -58t93.5 -152h-151q-14 33 -43.5 51.5t-65.5 18.5q-53 0 -86 -37.5t-33 -91.5t33 -89.5t86 -35.5q67 0 110 67h151z" />
<glyph unicode="&#xe8;" horiz-adv-x="578" d="M551 244q0 -22 -4 -41h-375q5 -43 35.5 -68t74.5 -25q53 0 92 39l7 7h152q-33 -78 -97 -125.5t-146 -47.5q-110 0 -186.5 78t-76.5 188t75 189t185 79q114 0 189 -79t75 -194zM401 303q-8 40 -39.5 63.5t-73.5 23.5q-43 0 -73 -23t-39 -64h225zM423 617l-51 -74l-204 131 l60 91z" />
<glyph unicode="&#xe9;" horiz-adv-x="578" d="M410 674l-204 -131l-51 74l195 148zM551 244q0 -22 -4 -41h-375q5 -43 35.5 -68t74.5 -25q53 0 92 39l7 7h152q-33 -78 -97 -125.5t-146 -47.5q-110 0 -186.5 78t-76.5 188t75 189t185 79q114 0 189 -79t75 -194zM401 303q-8 40 -39.5 63.5t-73.5 23.5q-43 0 -73 -23 t-39 -64h225z" />
<glyph unicode="&#xea;" horiz-adv-x="578" d="M472 560h-141l-42 58l-41 -58h-142l133 149h104zM551 244q0 -22 -4 -41h-375q5 -43 35.5 -68t74.5 -25q53 0 92 39l7 7h152q-33 -78 -97 -125.5t-146 -47.5q-110 0 -186.5 78t-76.5 188t75 189t185 79q114 0 189 -79t75 -194zM401 303q-8 40 -39.5 63.5t-73.5 23.5 q-43 0 -73 -23t-39 -64h225z" />
<glyph unicode="&#xeb;" horiz-adv-x="578" d="M465 567h-144v136h144v-136zM265 567h-144v136h144v-136zM551 244q0 -22 -4 -41h-375q5 -43 35.5 -68t74.5 -25q53 0 92 39l7 7h152q-33 -78 -97 -125.5t-146 -47.5q-110 0 -186.5 78t-76.5 188t75 189t185 79q114 0 189 -79t75 -194zM401 303q-8 40 -39.5 63.5 t-73.5 23.5q-43 0 -73 -23t-39 -64h225z" />
<glyph unicode="&#xec;" horiz-adv-x="250" d="M252 617l-51 -74l-203 131l59 91zM200 0h-150v500h150v-500z" />
<glyph unicode="&#xed;" horiz-adv-x="250" d="M252 674l-203 -131l-51 74l195 148zM200 0h-150v500h150v-500z" />
<glyph unicode="&#xee;" horiz-adv-x="250" d="M252 560h-91l-36 71l-35 -71h-92l92 149h72zM200 0h-150v500h150v-500z" />
<glyph unicode="&#xef;" horiz-adv-x="250" d="M249 573h-100v123h100v-123zM101 573h-100v123h100v-123zM200 0h-150v500h150v-500z" />
<glyph unicode="&#xf0;" horiz-adv-x="595" d="M568 246q0 -58 -24 -111.5t-67 -89.5q-71 -61 -181 -61q-116 0 -192.5 74t-76.5 190q0 110 69.5 182t179.5 72q41 0 88 -20q-26 56 -39 78l-63 -20l-30 59l63 20q-18 31 -40 58l95 26q27 -29 41 -51l71 22l37 -59l-68 -21q62 -97 99.5 -181.5t37.5 -166.5zM418 243 q0 56 -33 93.5t-89 37.5q-55 0 -87 -34t-32 -89q0 -57 33.5 -92.5t89.5 -35.5q50 0 84 35t34 85z" />
<glyph unicode="&#xf1;" horiz-adv-x="560" d="M513 0h-150v273q0 49 -16.5 76.5t-61.5 27.5q-85 0 -85 -98v-279h-150v500h142v-53q49 70 137 70q81 0 134 -51q32 -31 41 -65t9 -88v-313zM467 615q-55 -38 -112 -38q-23 0 -66 9.5t-66 9.5q-28 0 -72 -20l-58 80q64 35 106 35q23 0 68 -9t68 -9q32 0 74 18z" />
<glyph unicode="&#xf2;" horiz-adv-x="595" d="M567 250q0 -115 -77 -191t-192 -76q-116 0 -193.5 74.5t-77.5 189.5q0 117 76.5 193.5t193.5 76.5q115 0 192.5 -76t77.5 -191zM417 250q0 52 -34 89.5t-85 37.5q-52 0 -86.5 -37t-34.5 -89q0 -54 34 -91t87 -37q52 0 85.5 37t33.5 90zM431 617l-51 -74l-203 131l59 91z " />
<glyph unicode="&#xf3;" horiz-adv-x="595" d="M567 250q0 -115 -77 -191t-192 -76q-116 0 -193.5 74.5t-77.5 189.5q0 117 76.5 193.5t193.5 76.5q115 0 192.5 -76t77.5 -191zM417 250q0 52 -34 89.5t-85 37.5q-52 0 -86.5 -37t-34.5 -89q0 -54 34 -91t87 -37q52 0 85.5 37t33.5 90zM418 674l-204 -131l-51 74l196 148 z" />
<glyph unicode="&#xf4;" horiz-adv-x="595" d="M567 250q0 -115 -77 -191t-192 -76q-116 0 -193.5 74.5t-77.5 189.5q0 117 76.5 193.5t193.5 76.5q115 0 192.5 -76t77.5 -191zM417 250q0 52 -34 89.5t-85 37.5q-52 0 -86.5 -37t-34.5 -89q0 -54 34 -91t87 -37q52 0 85.5 37t33.5 90zM481 560h-142l-41 58l-41 -58h-143 l133 149h104z" />
<glyph unicode="&#xf5;" horiz-adv-x="595" d="M567 250q0 -115 -77 -191t-192 -76q-116 0 -193.5 74.5t-77.5 189.5q0 117 76.5 193.5t193.5 76.5q115 0 192.5 -76t77.5 -191zM417 250q0 52 -34 89.5t-85 37.5q-52 0 -86.5 -37t-34.5 -89q0 -54 34 -91t87 -37q52 0 85.5 37t33.5 90zM484 615q-55 -38 -111 -38 q-23 0 -67 9.5t-66 9.5q-29 0 -71 -20l-58 80q62 35 105 35q23 0 68.5 -9t68.5 -9q33 0 73 18z" />
<glyph unicode="&#xf6;" horiz-adv-x="595" d="M567 250q0 -115 -77 -191t-192 -76q-116 0 -193.5 74.5t-77.5 189.5q0 117 76.5 193.5t193.5 76.5q115 0 192.5 -76t77.5 -191zM417 250q0 52 -34 89.5t-85 37.5q-52 0 -86.5 -37t-34.5 -89q0 -54 34 -91t87 -37q52 0 85.5 37t33.5 90zM469 567h-143v136h143v-136z M269 567h-143v136h143v-136z" />
<glyph unicode="&#xf7;" d="M467 281h-434v117h434v-117zM323 510q0 -30 -21.5 -51.5t-51.5 -21.5t-51.5 21.5t-21.5 51.5t21.5 51.5t51.5 21.5t51.5 -21.5t21.5 -51.5zM323 168q0 -30 -21.5 -51t-51.5 -21t-51.5 21t-21.5 51q0 31 21 52t52 21q30 0 51.5 -21.5t21.5 -51.5z" />
<glyph unicode="&#xf8;" horiz-adv-x="595" d="M567 249q0 -114 -77.5 -190t-191.5 -76q-54 0 -109 21l-58 -79l-95 72l55 74q-64 73 -64 178q0 117 77.5 192.5t194.5 75.5q54 0 109 -21l55 74l96 -69l-56 -75q64 -77 64 -177zM417 251q0 25 -10 52l-132 -177q11 -3 22 -3q53 0 86.5 37t33.5 91zM323 374q-12 3 -25 3 q-52 0 -86.5 -37.5t-34.5 -89.5q0 -27 12 -55z" />
<glyph unicode="&#xf9;" horiz-adv-x="562" d="M512 0h-142v53q-35 -70 -132 -70q-92 0 -146 63q-29 33 -37 66.5t-8 88.5v299h150v-279q0 -48 17.5 -73t62.5 -25q43 0 64 27t21 71v279h150v-500zM415 617l-51 -74l-204 131l60 91z" />
<glyph unicode="&#xfa;" horiz-adv-x="562" d="M402 674l-204 -131l-51 74l195 148zM512 0h-142v53q-35 -70 -132 -70q-92 0 -146 63q-29 33 -37 66.5t-8 88.5v299h150v-279q0 -48 17.5 -73t62.5 -25q43 0 64 27t21 71v279h150v-500z" />
<glyph unicode="&#xfb;" horiz-adv-x="562" d="M464 560h-141l-42 58l-41 -58h-142l133 149h104zM512 0h-142v53q-35 -70 -132 -70q-92 0 -146 63q-29 33 -37 66.5t-8 88.5v299h150v-279q0 -48 17.5 -73t62.5 -25q43 0 64 27t21 71v279h150v-500z" />
<glyph unicode="&#xfc;" horiz-adv-x="562" d="M512 0h-142v53q-35 -70 -132 -70q-92 0 -146 63q-29 33 -37 66.5t-8 88.5v299h150v-279q0 -48 17.5 -73t62.5 -25q43 0 64 27t21 71v279h150v-500zM451 567h-143v136h143v-136zM251 567h-143v136h143v-136z" />
<glyph unicode="&#xfd;" horiz-adv-x="496" d="M506 500l-251 -667h-158l79 192l-186 475h159l101 -290l97 290h159zM415 674l-203 -131l-51 74l195 148z" />
<glyph unicode="&#xfe;" horiz-adv-x="621" d="M594 243q0 -109 -69.5 -184.5t-176.5 -75.5q-91 0 -148 63v-213h-150v834h150v-210q34 33 68 46.5t82 13.5q113 0 178.5 -79.5t65.5 -194.5zM444 253q0 52 -37 88t-89 36q-53 0 -89.5 -35.5t-36.5 -88.5q0 -55 35.5 -92.5t90.5 -37.5q56 0 91 37t35 93z" />
<glyph unicode="&#xff;" horiz-adv-x="496" d="M420 567h-144v136h144v-136zM220 567h-144v136h144v-136zM506 500l-251 -667h-158l79 192l-186 475h159l101 -290l97 290h159z" />
<glyph unicode="&#x152;" horiz-adv-x="971" d="M930 0h-371v43q-80 -56 -184 -56q-144 0 -245 100.5t-101 244.5q0 148 100.5 248t248.5 100q103 0 181 -57v44h371v-150h-207v-103h200v-150h-200v-114h207v-150zM558 336q0 82 -49.5 138t-129.5 56q-81 0 -130.5 -57.5t-49.5 -140.5q0 -79 50 -137t128 -58q81 0 131 58 t50 141z" />
<glyph unicode="&#x153;" horiz-adv-x="966" d="M939 245q0 -19 -5 -42h-375q4 -44 36 -68.5t77 -24.5q54 0 97 46h152q-31 -78 -97 -125.5t-149 -47.5q-120 0 -188 90q-27 -33 -45 -46q-62 -44 -149 -44q-115 0 -190.5 75.5t-75.5 190.5q0 118 75.5 193t193.5 75q128 0 191 -86q29 40 82 63t106 23q112 0 188 -80 t76 -192zM789 303q-9 41 -40 64t-73 23t-73.5 -23.5t-39.5 -63.5h226zM419 250q0 51 -35.5 89t-85.5 38q-51 0 -86 -37t-35 -89t35 -90t87 -38q51 0 85.5 38t34.5 89z" />
<glyph unicode="&#x178;" horiz-adv-x="547" d="M557 667l-198 -424v-243h-170v243l-199 424h185l99 -268l100 268h183zM460 733h-156v150h156v-150zM244 733h-157v150h157v-150z" />
<glyph unicode="&#x2c6;" d="M433 560h-141l-42 58l-41 -58h-142l133 149h104z" />
<glyph unicode="&#x2dc;" d="M436 609q-52 -34 -107 -34q-25 0 -71.5 11.5t-70.5 11.5q-26 0 -68 -17l-55 81q58 32 101 32q25 0 74 -11.5t75 -11.5q31 0 67 16z" />
<glyph unicode="&#x2000;" horiz-adv-x="471" />
<glyph unicode="&#x2001;" horiz-adv-x="942" />
<glyph unicode="&#x2002;" horiz-adv-x="471" />
<glyph unicode="&#x2003;" horiz-adv-x="942" />
<glyph unicode="&#x2004;" horiz-adv-x="314" />
<glyph unicode="&#x2005;" horiz-adv-x="235" />
<glyph unicode="&#x2006;" horiz-adv-x="157" />
<glyph unicode="&#x2007;" horiz-adv-x="157" />
<glyph unicode="&#x2008;" horiz-adv-x="117" />
<glyph unicode="&#x2009;" horiz-adv-x="188" />
<glyph unicode="&#x200a;" horiz-adv-x="52" />
<glyph unicode="&#x2010;" horiz-adv-x="253" d="M253 193h-253v127h253v-127z" />
<glyph unicode="&#x2011;" horiz-adv-x="253" d="M253 193h-253v127h253v-127z" />
<glyph unicode="&#x2013;" d="M467 281h-434v117h434v-117z" />
<glyph unicode="&#x2014;" horiz-adv-x="767" d="M767 193h-767v127h767v-127z" />
<glyph unicode="&#x2018;" horiz-adv-x="262" d="M209 368h-156v190q0 45 24 77t68 32h64v-81h-12h-14q-3 0 -12.5 -1t-13 -3.5t-9 -6t-7.5 -9.5t-2 -14v-30h70v-154z" />
<glyph unicode="&#x2019;" horiz-adv-x="262" d="M209 477q0 -45 -24 -77t-68 -32h-64v81h12h14q3 0 12.5 1t13 3.5t9 6t7.5 9.5t2 14v30h-70v154h156v-190z" />
<glyph unicode="&#x201a;" horiz-adv-x="262" d="M209 -36q0 -45 -24 -77t-68 -32h-64v80h11h12q3 0 10.5 0.5t11.5 2t9.5 4t8.5 6t5 9t2 12.5v31h-70v153h156v-189z" />
<glyph unicode="&#x201c;" horiz-adv-x="485" d="M209 368h-156v190q0 45 24 77t68 32h64v-81h-12h-14q-3 0 -12.5 -1t-13 -3.5t-9 -6t-7.5 -9.5t-2 -14v-30h70v-154zM431 368h-155v190q0 45 24 77t68 32h63v-81h-12h-14q-4 0 -12.5 -1t-12.5 -3t-9 -5.5t-7 -10t-2 -14.5v-30h69v-154z" />
<glyph unicode="&#x201d;" horiz-adv-x="485" d="M209 477q0 -45 -24 -77t-68 -32h-64v81h12h14q3 0 12.5 1t13 3.5t9 6t7.5 9.5t2 14v30h-70v154h156v-190zM431 477q0 -45 -23.5 -77t-67.5 -32h-64v81h12h14q3 0 12.5 1t13 3.5t9 6t7.5 9.5t2 14v30h-70v154h155v-190z" />
<glyph unicode="&#x201e;" horiz-adv-x="485" d="M209 -36q0 -45 -24 -77t-68 -32h-64v80h11h12q3 0 10.5 0.5t11.5 2t9.5 4t8.5 6t5 9t2 12.5v31h-70v153h156v-189zM431 -36q0 -45 -23.5 -77t-67.5 -32h-64v80h10h12q4 0 11.5 0.5t11.5 2t9.5 4t8.5 6t5 9t2 12.5v31h-70v153h155v-189z" />
<glyph unicode="&#x2022;" horiz-adv-x="667" d="M471 340q0 -57 -40 -98.5t-97 -41.5t-97.5 41.5t-40.5 98.5t40.5 98.5t97.5 41.5t97 -41.5t40 -98.5z" />
<glyph unicode="&#x2026;" horiz-adv-x="786" d="M209 0h-156v153h156v-153zM471 0h-156v153h156v-153zM733 0h-156v153h156v-153z" />
<glyph unicode="&#x202f;" horiz-adv-x="188" />
<glyph unicode="&#x2039;" horiz-adv-x="189" d="M149 86l-116 115v115l116 125v-140l-46 -41l46 -42v-132z" />
<glyph unicode="&#x203a;" horiz-adv-x="189" d="M156 200l-116 -114v133l46 41l-46 42v132l116 -118v-116z" />
<glyph unicode="&#x205f;" horiz-adv-x="235" />
<glyph unicode="&#x20ac;" horiz-adv-x="825" d="M456 305l-36 -84h-100q50 -84 147 -84q107 0 161 112h178q-28 -118 -121.5 -190t-215.5 -72q-115 0 -205.5 64.5t-126.5 169.5h-130l36 84h76q-1 10 -1 30q0 17 1 26h-112l36 85h93q35 104 125.5 169t205.5 65q93 0 170 -41.5t126 -119.5q20 -32 29 -52.5t14 -53.5h-178 q-20 53 -63.5 85t-98.5 32q-96 0 -148 -84h193l-36 -85h-185q-2 -18 -2 -26q0 -10 2 -30h166z" />
<glyph unicode="&#x2122;" horiz-adv-x="817" d="M764 287h-106l4 262l-86 -262h-75l-85 262l3 -262h-105v380h143l82 -239l80 239h145v-380zM290 576h-83v-289h-114v289h-83v91h280v-91z" />
</font>
</defs>
</svg>
